<svg width="20" height="16" viewBox="0 0 20 16" fill="none" xmlns="http://www.w3.org/2000/svg">
<style>
    path {
        fill: white;
    }
</style>
<g clip-path="url(#clip0_2_7)">
<path d="M16.1111 11.4348H17.8889L18.4578 9.22609C18.6711 8.39217 18.6711 7.52 18.4578 6.68696L17.5067 2.97391C17.362 2.40995 17.029 1.90942 16.5603 1.5518C16.0917 1.19418 15.5144 0.999967 14.92 1H2.77778C2.30628 1 1.8541 1.18323 1.5207 1.50938C1.1873 1.83553 1 2.27788 1 2.73913V11.4348H2.77778M11.6667 11.4348H7.22222" stroke="black" stroke-width="2.66667" stroke-linecap="round" stroke-linejoin="round"/>
<path d="M5 14.0435C6.2273 14.0435 7.22222 13.0702 7.22222 11.8696C7.22222 10.6689 6.2273 9.69565 5 9.69565C3.7727 9.69565 2.77778 10.6689 2.77778 11.8696C2.77778 13.0702 3.7727 14.0435 5 14.0435Z" stroke="black" stroke-width="2.66667" stroke-linecap="round" stroke-linejoin="round"/>
<path d="M13.8889 14.0435C15.1162 14.0435 16.1111 13.0702 16.1111 11.8696C16.1111 10.6689 15.1162 9.69565 13.8889 9.69565C12.6616 9.69565 11.6667 10.6689 11.6667 11.8696C11.6667 13.0702 12.6616 14.0435 13.8889 14.0435Z" stroke="black" stroke-width="2.66667" stroke-linecap="round" stroke-linejoin="round"/>
</g>
<defs>
<clipPath id="clip0_2_7">
<rect width="19.6178" height="15.0435" fill="white"/>
</clipPath>
</defs>
</svg>
